<svg viewBox="-1956 1143 1385 601" xmlns="http://www.w3.org/2000/svg"><g fill="#fff"><path d="m-1784 1594h89v75h-89z" opacity=".046"/><path d="m-1505 1258h89v75h-89z" opacity=".046"/><path d="m-1359 1318h89v75h-89z" opacity=".046"/><path d="m-1345 1445h89v75h-89z" opacity=".046"/><path d="m-1558 1482h89v75h-89z" opacity=".046"/><path d="m-1738 1472h89v75h-89z" opacity=".046"/><path d="m-1345 1159h89v75h-89z" opacity=".046"/><path d="m-1828 1157h89v75h-89z" opacity=".046"/><path d="m-1513 1143h89v75h-89z" opacity=".046"/><path d="m-874 1632h89v75h-89z" opacity=".046"/><path d="m-1179 1657h89v75h-89z" opacity=".046"/><path d="m-893 1472h89v75h-89z" opacity=".046"/><path d="m-983 1157h89v75h-89z" opacity=".046"/><path d="m-660 1258h89v75h-89z" opacity=".046"/><path d="m-713 1482h89v75h-89z" opacity=".046"/><path d="m-668 1143h89v75h-89z" opacity=".046"/><path d="m-1626 1356h89v75h-89z" opacity=".046"/><path d="m-1715 1272h89v75h-89z" opacity=".046"/><path d="m-1448 1669h89v75h-89z" opacity=".046"/><path d="m-954 1296h89v75h-89z" opacity=".046"/><path d="m-1155 1496h89v75h-89z" opacity=".046"/><path d="m-1956 1531h89v75h-89z" opacity=".046"/></g></svg>