<svg height="835" viewBox="0 0 1332 835" width="1332" xmlns="http://www.w3.org/2000/svg" xmlns:xlink="http://www.w3.org/1999/xlink"><defs><linearGradient id="a" x1="97.727%" x2="0%" y1="50%" y2="50%"><stop offset="0" stop-opacity="0"/><stop offset=".14212"/><stop offset=".49096"/><stop offset=".85271"/><stop offset="1" stop-opacity="0"/></linearGradient><filter id="b" height="468.8%" width="102.4%" x="-1.2%" y="-184.4%"><feGaussianBlur in="SourceGraphic" stdDeviation="4.303"/></filter><linearGradient id="c" x1="97.727%" x2="0%" y1="50%" y2="50%"><stop offset="0" stop-color="#fff" stop-opacity="0"/><stop offset=".85271" stop-color="#50545a"/><stop offset="1" stop-opacity="0"/></linearGradient><filter id="d" height="1390.8%" width="102.4%" x="-1.2%" y="-645.4%"><feGaussianBlur in="SourceGraphic" stdDeviation="4.303"/></filter><linearGradient id="e" x1="97.727%" x2="0%" y1="50%" y2="50%"><stop offset="0" stop-color="#fff" stop-opacity="0"/><stop offset=".85271"/><stop offset="1" stop-opacity="0"/></linearGradient><filter id="f" height="1390.8%" width="102.4%" x="-1.2%" y="-645.4%"><feGaussianBlur in="SourceGraphic" stdDeviation="4.303"/></filter><linearGradient id="g" x1="50%" x2="50%" y1="7.091%" y2="52.212%"><stop offset="0" stop-color="#50545a"/><stop offset="1" stop-color="#50545a" stop-opacity="0"/></linearGradient><filter id="h" height="217.7%" width="117.4%" x="-8.7%" y="-58.8%"><feGaussianBlur in="SourceGraphic" stdDeviation="30.982"/></filter><filter id="i" height="221.5%" width="105.4%" x="-2.7%" y="-60.7%"><feGaussianBlur in="SourceGraphic" stdDeviation="10.327"/></filter><path id="j" d="m184.258 0h963.484c21.075 0 26.988 0 36.062 3.044 10.727 3.912 19.225 12.393 23.145 23.097 3.051 9.055 3.051 14.956 3.051 35.987v558.744c0 21.031 0 26.932-3.051 35.987-3.92 10.704-12.418 19.185-23.145 23.097-9.074 3.044-14.987 3.044-36.062 3.044h-963.484c-21.075 0-26.99 0-36.062-3.044-10.727-3.912-19.225-12.393-23.145-23.097-3.051-9.055-3.051-14.956-3.051-35.987v-558.744c0-21.031 0-26.932 3.051-35.987 3.92-10.704 12.418-19.185 23.145-23.097 9.072-3.044 14.987-3.044 36.062-3.044z"/><filter id="k" height="134.3%" width="121.5%" x="-10.5%" y="-16.7%"><feOffset dx="3" dy="3" in="SourceAlpha" result="shadowOffsetOuter1"/><feGaussianBlur in="shadowOffsetOuter1" result="shadowBlurOuter1" stdDeviation="38.5"/><feColorMatrix in="shadowBlurOuter1" values="0 0 0 0 0 0 0 0 0 0 0 0 0 0 0 0 0 0 0.05 0"/></filter><linearGradient id="l" x1="0%" y1="50%" y2="50%"><stop offset="0" stop-opacity=".04"/><stop offset="1" stop-color="#fff" stop-opacity=".04"/></linearGradient><path id="m" d="m.114.103h1331.382v7.307h-1331.382z"/><filter id="n" height="100%" width="100%" x="0%" y="0%"><feOffset in="SourceAlpha" result="shadowOffsetInner1"/><feComposite in="shadowOffsetInner1" in2="SourceAlpha" k2="-1" k3="1" operator="arithmetic" result="shadowInnerInner1"/><feColorMatrix in="shadowInnerInner1" values="0 0 0 0 0 0 0 0 0 0 0 0 0 0 0 0 0 0 0.02 0"/></filter><linearGradient id="o"><stop offset="0"/><stop offset="1" stop-color="#fff"/></linearGradient><linearGradient id="p" x1="124.719%" x2="0%" xlink:href="#o" y1="50%" y2="50%"/><linearGradient id="q" x1="0%" xlink:href="#o" y1="50%" y2="50%"/><linearGradient id="r" x1="0%" y1="50%" y2="50%"><stop offset="0" stop-opacity=".07"/><stop offset="1" stop-color="#eaeaea" stop-opacity=".07"/><stop offset="1" stop-color="#fff" stop-opacity=".07"/></linearGradient><linearGradient id="s" x1="50%" x2="50%" y1="0%" y2="100%"><stop offset="0" stop-opacity=".07"/><stop offset="1" stop-color="#fff" stop-opacity=".07"/></linearGradient><linearGradient id="t" x1="50%" x2="50%" y1="0%" y2="100%"><stop offset="0" stop-color="#fff" stop-opacity=".05"/><stop offset="1" stop-opacity=".05"/></linearGradient><path id="u" d="m.205 8.05h1331.383c-7.869 4.828-77.66 24.635-309.912 19.49-20.512 0-598.546-.61-725.195-.61-146.987 0-207.835.58-263.372-9.935-19.442-3.681-29.178-6.721-32.904-8.945z"/><path id="v" d="m562.915.103h229.954v6.7c0 2.566-24.793 3.044-24.793 3.044h-205.161s-24.793-.478-24.793-3.045v-6.7h24.793z"/><filter id="w" height="100%" width="100%" x="0%" y="0%"><feOffset in="SourceAlpha" result="shadowOffsetInner1"/><feComposite in="shadowOffsetInner1" in2="SourceAlpha" k2="-1" k3="1" operator="arithmetic" result="shadowInnerInner1"/><feColorMatrix in="shadowInnerInner1" values="0 0 0 0 0 0 0 0 0 0 0 0 0 0 0 0 0 0 0.03 0"/></filter><linearGradient id="x" x1="100%" x2="0%" xlink:href="#o" y1="50%" y2="50%"/></defs><g fill="none" fill-rule="evenodd" transform="translate(0 73)"><g fill-opacity=".1"><path d="m122 682h1089v7h-1089z" fill="url(#a)" filter="url(#b)" opacity=".8" transform="matrix(1 0 0 -1 0 1371)"/><path d="m122 690h1089v2h-1089z" fill="url(#c)" filter="url(#d)"/><path d="m122 690h1089v2h-1089z" fill="url(#e)" filter="url(#f)" transform="matrix(-1 0 0 1 1333 0)"/></g><path d="m158.365 615h1014.27c18.463 0 29.837 3.346 25.41 7.468l-153.65 143.064c-4.429 4.124-18.294 7.468-30.956 7.468h-695.878c-12.667 0-26.529-3.346-30.956-7.468l-153.649-143.064c-4.43-4.124 6.954-7.468 25.41-7.468z" fill="url(#g)" fill-opacity=".5" filter="url(#h)"/><rect fill="#50545a" fill-opacity=".1" filter="url(#i)" height="51" rx="25.5" width="1148" x="92" y="666"/><use fill="#000" filter="url(#k)" xlink:href="#j"/><use fill="#fff" xlink:href="#j"/><path d="m663 26a4 4 0 1 1 0 8 4 4 0 0 1 0-8z" fill="#f2f2f2"/><g transform="translate(0 658)"><use fill="#fff" xlink:href="#m"/><use fill="url(#l)" xlink:href="#m"/><use fill="#000" filter="url(#n)" xlink:href="#m"/><path d="m1281.91.103h49.586v7.307h-49.586z" fill="url(#p)" opacity=".1"/><path d="m.115.103h49.585v7.307h-49.585z" fill="url(#q)" opacity=".1"/><use fill="#fafdff" xlink:href="#u"/><use fill="url(#r)" xlink:href="#u"/><use fill="url(#r)" xlink:href="#u"/><use fill="url(#s)" xlink:href="#u"/><use fill="url(#t)" xlink:href="#u"/><use fill="#fff" xlink:href="#v"/><use fill="#000" filter="url(#w)" xlink:href="#v"/><path d="m538.122.103h24.793v9.744s-24.793-.478-24.793-3.045v-6.7z" fill="url(#q)" opacity=".07"/><path d="m792.87.103h-24.794v9.744s24.793-.478 24.793-3.045v-6.7z" fill="url(#x)" opacity=".07"/></g></g></svg>