<svg height="128" viewBox="0 0 64 64" width="128" xmlns="http://www.w3.org/2000/svg"><path d="m7 7h50v48h-50z" fill="#85cbf8"/><path d="m54 12h-44a3 3 0 0 1 -3-3 2 2 0 0 1 2-2h46a2 2 0 0 1 2 2 3 3 0 0 1 -3 3z" fill="#ace3ff"/><path d="m56 55h-48a1 1 0 0 1 -1-1 4 4 0 0 1 4-4h43a3 3 0 0 1 3 3v1a1 1 0 0 1 -1 1z" fill="#6fc6f0"/><circle cx="51" cy="51" fill="#72caaf" r="12"/><g fill="#8d6c9f"><path d="m12 10a1 1 0 0 0 -1 1v2a1 1 0 0 0 2 0v-2a1 1 0 0 0 -1-1z"/><path d="m17 14a1 1 0 0 0 1-1v-2a1 1 0 0 0 -2 0v2a1 1 0 0 0 1 1z"/><path d="m22 14a1 1 0 0 0 1-1v-2a1 1 0 0 0 -2 0v2a1 1 0 0 0 1 1z"/><path d="m27 14a1 1 0 0 0 1-1v-2a1 1 0 0 0 -2 0v2a1 1 0 0 0 1 1z"/><path d="m32 14a1 1 0 0 0 1-1v-2a1 1 0 0 0 -2 0v2a1 1 0 0 0 1 1z"/><path d="m37 14a1 1 0 0 0 1-1v-2a1 1 0 0 0 -2 0v2a1 1 0 0 0 1 1z"/><path d="m42 14a1 1 0 0 0 1-1v-2a1 1 0 0 0 -2 0v2a1 1 0 0 0 1 1z"/><path d="m47 14a1 1 0 0 0 1-1v-2a1 1 0 0 0 -2 0v2a1 1 0 0 0 1 1z"/><path d="m52 14a1 1 0 0 0 1-1v-2a1 1 0 0 0 -2 0v2a1 1 0 0 0 1 1z"/></g><path d="m39 26h6a1 1 0 0 0 0-2h-6a1 1 0 0 0 0 2z" fill="#fff"/><path d="m17 26h18a1 1 0 0 0 0-2h-18a1 1 0 0 0 0 2z" fill="#fff"/><path d="m17 32h22a1 1 0 0 0 0-2h-22a1 1 0 0 0 0 2z" fill="#fff"/><path d="m44 37a1 1 0 0 0 -1-1h-26a1 1 0 0 0 0 2h26a1 1 0 0 0 1-1z" fill="#fff"/><path d="m58 40.06v-31.06a3 3 0 0 0 -3-3h-46a3 3 0 0 0 -3 3v44a3 3 0 0 0 3 3h30a13 13 0 1 0 19-15.94zm-49 13.94a1 1 0 0 1 -1-1v-44a1 1 0 0 1 1-1h46a1 1 0 0 1 1 1v30a13 13 0 0 0 -17.64 15zm42 8a11 11 0 1 1 11-11 11 11 0 0 1 -11 11z" fill="#8d6c9f"/><path d="m57 50h-5v-5a1 1 0 0 0 -2 0v5h-5a1 1 0 0 0 0 2h5v5a1 1 0 0 0 2 0v-5h5a1 1 0 0 0 0-2z" fill="#faefde"/></svg>