<svg height="128" viewBox="0 0 64 64" width="128" xmlns="http://www.w3.org/2000/svg"><rect fill="#c5e4fa" height="46" rx="2" width="58" x="3" y="9"/><path d="m5 9h54a2 2 0 0 1 2 2v10a0 0 0 0 1 0 0h-58a0 0 0 0 1 0 0v-10a2 2 0 0 1 2-2z" fill="#ced8ed"/><path d="m61 21v16.68l-17.32 17.32h-19.25l34-34z" fill="#e3f2ff"/><path d="m54.52 21-34 34h-7.7l34-34z" fill="#e3f2ff"/><path d="m42.4 21-34 34h-1.28l34-34z" fill="#e3f2ff"/><path d="m27 13h30v4h-30z" fill="#c5e4fa"/><path d="m59 8h-54a3 3 0 0 0 -3 3v42a3 3 0 0 0 3 3h54a3 3 0 0 0 3-3v-42a3 3 0 0 0 -3-3zm1 45a1 1 0 0 1 -1 1h-54a1 1 0 0 1 -1-1v-31h56zm0-33h-56v-9a1 1 0 0 1 1-1h54a1 1 0 0 1 1 1z" fill="#8d6c9f"/><circle cx="8" cy="15" fill="#ed7899" r="2"/><circle cx="14" cy="15" fill="#ffeb9b" r="2"/><circle cx="20" cy="15" fill="#72caaf" r="2"/><g fill="#8d6c9f"><path d="m17 52a1 1 0 0 0 1-1v-2a1 1 0 0 0 -2 0v2a1 1 0 0 0 1 1z"/><path d="m12 52a1 1 0 0 0 1-1v-2a1 1 0 0 0 -2 0v2a1 1 0 0 0 1 1z"/><path d="m7 52a1 1 0 0 0 1-1v-2a1 1 0 0 0 -2 0v2a1 1 0 0 0 1 1z"/><path d="m22 52a1 1 0 0 0 1-1v-2a1 1 0 0 0 -2 0v2a1 1 0 0 0 1 1z"/><path d="m27 52a1 1 0 0 0 1-1v-2a1 1 0 0 0 -2 0v2a1 1 0 0 0 1 1z"/><path d="m32 52a1 1 0 0 0 1-1v-2a1 1 0 0 0 -2 0v2a1 1 0 0 0 1 1z"/><path d="m37 52a1 1 0 0 0 1-1v-2a1 1 0 0 0 -2 0v2a1 1 0 0 0 1 1z"/><path d="m42 52a1 1 0 0 0 1-1v-2a1 1 0 0 0 -2 0v2a1 1 0 0 0 1 1z"/><path d="m47 52a1 1 0 0 0 1-1v-2a1 1 0 0 0 -2 0v2a1 1 0 0 0 1 1z"/><path d="m52 52a1 1 0 0 0 1-1v-2a1 1 0 0 0 -2 0v2a1 1 0 0 0 1 1z"/><path d="m57 52a1 1 0 0 0 1-1v-2a1 1 0 0 0 -2 0v2a1 1 0 0 0 1 1z"/><path d="m56 12h-28a2 2 0 0 0 -2 2v2a2 2 0 0 0 2 2h28a2 2 0 0 0 2-2v-2a2 2 0 0 0 -2-2zm-28 4v-2h28v2z"/></g><path d="m19.66 25.83 1.24 2.27 2.27 1.24-2.27 1.23-1.24 2.27-1.23-2.27-2.27-1.23 2.27-1.24z" fill="#fff8f8"/><path d="m50.58 25 .86 1.56 1.56.86-1.56.85-.86 1.57-.85-1.57-1.57-.85 1.57-.86z" fill="#fff8f8"/><path d="m33.81 42.54.58 1.07 1.07.58-1.07.58-.58 1.07-.58-1.07-1.07-.58 1.07-.58z" fill="#fff8f8"/></svg>