<svg height="128" viewBox="0 0 64 64" width="128" xmlns="http://www.w3.org/2000/svg"><rect fill="#ed7899" height="36" rx="2" width="42" x="3" y="3"/><path d="m9 19h12v14h-12z" fill="#f9efde"/><path d="m27 19h12v14h-12z" fill="#f9efde"/><rect fill="#85cbf8" height="36" rx="2" width="42" x="19" y="25"/><path d="m61 27v8h-42v-8a2 2 0 0 1 2-2h38a2 2 0 0 1 2 2z" fill="#ace3ff"/><path d="m25 41h12v14h-12z" fill="#f9efde"/><path d="m43 41h12v14h-12z" fill="#f9efde"/><path d="m45 5v8h-42v-8a2 2 0 0 1 2-2h38a2 2 0 0 1 2 2z" fill="#f283a5"/><g fill="#8d6c9f"><path d="m41 12h-4a1 1 0 0 0 0 2h4a1 1 0 0 0 0-2z"/><path d="m11 6a1 1 0 0 0 -1 1v2a1 1 0 0 0 2 0v-2a1 1 0 0 0 -1-1z"/><path d="m6 6a1 1 0 0 0 -1 1v2a1 1 0 0 0 2 0v-2a1 1 0 0 0 -1-1z"/><path d="m26 6a1 1 0 0 0 -1 1v2a1 1 0 0 0 2 0v-2a1 1 0 0 0 -1-1z"/><path d="m31 6a1 1 0 0 0 -1 1v2a1 1 0 0 0 2 0v-2a1 1 0 0 0 -1-1z"/><path d="m36 10a1 1 0 0 0 1-1v-2a1 1 0 0 0 -2 0v2a1 1 0 0 0 1 1z"/><path d="m41 10a1 1 0 0 0 1-1v-2a1 1 0 0 0 -2 0v2a1 1 0 0 0 1 1z"/><path d="m16 6a1 1 0 0 0 -1 1v2a1 1 0 0 0 2 0v-2a1 1 0 0 0 -1-1z"/><path d="m21 6a1 1 0 0 0 -1 1v2a1 1 0 0 0 2 0v-2a1 1 0 0 0 -1-1z"/><path d="m59 24h-13v-19a3 3 0 0 0 -3-3h-38a3 3 0 0 0 -3 3v32a3 3 0 0 0 3 3h13v19a3 3 0 0 0 3 3h38a3 3 0 0 0 3-3v-32a3 3 0 0 0 -3-3zm-41 14h-13a1 1 0 0 1 -1-1v-23h29a1 1 0 0 0 0-2h-29v-7a1 1 0 0 1 1-1h38a1 1 0 0 1 1 1v19h-4v-5a1 1 0 0 0 -1-1h-12a1 1 0 0 0 -1 1v5h-4v-5a1 1 0 0 0 -1-1h-12a1 1 0 0 0 -1 1v14a1 1 0 0 0 1 1h9zm20-14h-10v-4h10zm-20 3v5h-8v-12h10v4.19a3 3 0 0 0 -2 2.81zm42 32a1 1 0 0 1 -1 1h-38a1 1 0 0 1 -1-1v-23h29a1 1 0 0 0 0-2h-29v-7a1 1 0 0 1 1-1h38a1 1 0 0 1 1 1z"/><path d="m57 34h-4a1 1 0 0 0 0 2h4a1 1 0 0 0 0-2z"/><path d="m27 28a1 1 0 0 0 -1 1v2a1 1 0 0 0 2 0v-2a1 1 0 0 0 -1-1z"/><path d="m22 28a1 1 0 0 0 -1 1v2a1 1 0 0 0 2 0v-2a1 1 0 0 0 -1-1z"/><path d="m42 28a1 1 0 0 0 -1 1v2a1 1 0 0 0 2 0v-2a1 1 0 0 0 -1-1z"/><path d="m47 28a1 1 0 0 0 -1 1v2a1 1 0 0 0 2 0v-2a1 1 0 0 0 -1-1z"/><path d="m52 32a1 1 0 0 0 1-1v-2a1 1 0 0 0 -2 0v2a1 1 0 0 0 1 1z"/><path d="m57 28a1 1 0 0 0 -1 1v2a1 1 0 0 0 2 0v-2a1 1 0 0 0 -1-1z"/><path d="m32 28a1 1 0 0 0 -1 1v2a1 1 0 0 0 2 0v-2a1 1 0 0 0 -1-1z"/><path d="m37 28a1 1 0 0 0 -1 1v2a1 1 0 0 0 2 0v-2a1 1 0 0 0 -1-1z"/><path d="m55 40h-12a1 1 0 0 0 -1 1v14a1 1 0 0 0 1 1h12a1 1 0 0 0 1-1v-14a1 1 0 0 0 -1-1zm-1 14h-10v-12h10z"/><path d="m37 40h-12a1 1 0 0 0 -1 1v14a1 1 0 0 0 1 1h12a1 1 0 0 0 1-1v-14a1 1 0 0 0 -1-1zm-1 14h-10v-12h10z"/></g></svg>