<svg height="128" viewBox="0 0 64 64" width="128" xmlns="http://www.w3.org/2000/svg"><rect fill="#c2cde7" height="50" rx="2" width="48" x="7" y="7"/><path d="m11 52h40a4 4 0 0 1 4 4 1 1 0 0 1 -1 1h-46a1 1 0 0 1 -1-1 4 4 0 0 1 4-4z" fill="#acb7d0"/><g fill="#8d6c9f"><path d="m51 30h-10.66l3.36-3.36a1 1 0 0 0 -1.41-1.41l-5.07 5.07a1 1 0 0 0 0 1.41l5.07 5.07a1 1 0 0 0 1.41-1.41l-3.36-3.37h10.66a1 1 0 0 0 0-2z"/><path d="m24.78 30.29-5.07-5.07a1 1 0 0 0 -1.41 1.41l3.36 3.37h-10.66a1 1 0 0 0 0 2h10.66l-3.36 3.36a1 1 0 1 0 1.41 1.41l5.07-5.07a1 1 0 0 0 0-1.41z"/><path d="m31.71 37.22a1 1 0 0 0 -1.41 0l-5.07 5.07a1 1 0 0 0 1.41 1.41l3.36-3.36v12.66a1 1 0 0 0 2 0v-12.66l3.36 3.36a1 1 0 0 0 1.41-1.41z"/><path d="m30.29 24.78a1 1 0 0 0 1.41 0l5.07-5.07a1 1 0 0 0 -1.41-1.41l-3.36 3.36v-10.66a1 1 0 0 0 -2 0v10.66l-3.36-3.36a1 1 0 0 0 -1.41 1.41z"/><circle cx="31" cy="31" r="2"/><path d="m53 6h-44a3 3 0 0 0 -3 3v46a3 3 0 0 0 3 3h44a3 3 0 0 0 3-3v-46a3 3 0 0 0 -3-3zm1 49a1 1 0 0 1 -1 1h-44a1 1 0 0 1 -1-1v-46a1 1 0 0 1 1-1h44a1 1 0 0 1 1 1z"/><path d="m16 50a1 1 0 0 0 -1 1v2a1 1 0 0 0 2 0v-2a1 1 0 0 0 -1-1z"/><path d="m11 50a1 1 0 0 0 -1 1v2a1 1 0 0 0 2 0v-2a1 1 0 0 0 -1-1z"/><path d="m36 50a1 1 0 0 0 -1 1v2a1 1 0 0 0 2 0v-2a1 1 0 0 0 -1-1z"/><path d="m41 50a1 1 0 0 0 -1 1v2a1 1 0 0 0 2 0v-2a1 1 0 0 0 -1-1z"/><path d="m46 50a1 1 0 0 0 -1 1v2a1 1 0 0 0 2 0v-2a1 1 0 0 0 -1-1z"/><path d="m51 50a1 1 0 0 0 -1 1v2a1 1 0 0 0 2 0v-2a1 1 0 0 0 -1-1z"/><path d="m21 50a1 1 0 0 0 -1 1v2a1 1 0 0 0 2 0v-2a1 1 0 0 0 -1-1z"/><path d="m26 50a1 1 0 0 0 -1 1v2a1 1 0 0 0 2 0v-2a1 1 0 0 0 -1-1z"/></g></svg>