<svg height="128" viewBox="0 0 64 64" width="128" xmlns="http://www.w3.org/2000/svg"><path d="m8 49h30s6 10 11 9c-1-4-1.67-9-1.67-9h8.67a3 3 0 0 0 3-3v-34a3 3 0 0 0 -3-3h-48a3 3 0 0 0 -3 3v34a3 3 0 0 0 3 3z" fill="#c2cde7"/><path d="m41 45 17.56-17.56-.56-13.44-31 31z" fill="#ced9ed"/><path d="m18 46-2-1 36-36h4.5l.88 1.19-38.38 38.37z" fill="#ced9ed"/><path d="m11 45h-4l36-36h4z" fill="#ced9ed"/><path d="m49.5 32 1.24 2.26 2.26 1.24-2.26 1.24-1.24 2.26-1.24-2.26-2.26-1.24 2.26-1.24z" fill="#e9ecf2"/><path d="m36.42 13 .85 1.56 1.57.86-1.57.85-.85 1.57-.86-1.57-1.56-.85 1.56-.86z" fill="#e9ecf2"/><path d="m13.65 34 .58 1.06 1.07.59-1.07.58-.58 1.07-.59-1.07-1.06-.58 1.06-.59z" fill="#e9ecf2"/><path d="m59 48a1 1 0 0 1 -1 1h-10.67s.67 5 1.67 9c-5 1-11-9-11-9h-32a1 1 0 0 1 -1-1 4 4 0 0 1 4-4h46a4 4 0 0 1 4 4z" fill="#acb7d0"/><g fill="#8d6c9f"><path d="m57 8h-50a3 3 0 0 0 -3 3v36a3 3 0 0 0 3 3h30.34a18.21 18.21 0 0 0 12.44 10h.22a1 1 0 0 0 .86-1.51 21.08 21.08 0 0 1 -2.79-8.49h8.93a3 3 0 0 0 3-3v-36a3 3 0 0 0 -3-3zm1 39a1 1 0 0 1 -1 1h-10a1 1 0 0 0 -1 1 22.06 22.06 0 0 0 2 8.37 16.65 16.65 0 0 1 -9.08-8.72 1 1 0 0 0 -.92-.65h-31a1 1 0 0 1 -1-1v-36a1 1 0 0 1 1-1h50a1 1 0 0 1 1 1z"/><path d="m49 42a1 1 0 0 0 -1 1v2a1 1 0 0 0 2 0v-2a1 1 0 0 0 -1-1z"/><path d="m54 42a1 1 0 0 0 -1 1v2a1 1 0 0 0 2 0v-2a1 1 0 0 0 -1-1z"/><path d="m44 42a1 1 0 0 0 -1 1v2a1 1 0 0 0 2 0v-2a1 1 0 0 0 -1-1z"/><path d="m39 42a1 1 0 0 0 -1 1v2a1 1 0 0 0 2 0v-2a1 1 0 0 0 -1-1z"/><path d="m34 42a1 1 0 0 0 -1 1v2a1 1 0 0 0 2 0v-2a1 1 0 0 0 -1-1z"/><path d="m29 42a1 1 0 0 0 -1 1v2a1 1 0 0 0 2 0v-2a1 1 0 0 0 -1-1z"/><path d="m24 42a1 1 0 0 0 -1 1v2a1 1 0 0 0 2 0v-2a1 1 0 0 0 -1-1z"/><path d="m19 42a1 1 0 0 0 -1 1v2a1 1 0 0 0 2 0v-2a1 1 0 0 0 -1-1z"/><path d="m14 42a1 1 0 0 0 -1 1v2a1 1 0 0 0 2 0v-2a1 1 0 0 0 -1-1z"/><path d="m9 42a1 1 0 0 0 -1 1v2a1 1 0 0 0 2 0v-2a1 1 0 0 0 -1-1z"/><path d="m47 24h-4a1 1 0 0 0 0 2h4a1 1 0 0 0 0-2z"/><path d="m17 26h22a1 1 0 0 0 0-2h-22a1 1 0 0 0 0 2z"/><path d="m44 31a1 1 0 0 0 -1-1h-26a1 1 0 0 0 0 2h26a1 1 0 0 0 1-1z"/></g></svg>