<svg height="128" viewBox="0 0 64 64" width="128" xmlns="http://www.w3.org/2000/svg"><path d="m5 15h53v38h-53z" fill="#85cbf8"/><path d="m58 53h-18l-8 8-8-8h-18a1 1 0 0 1 -1-1 4 4 0 0 1 4-4h47a3 3 0 0 1 3 3v1a1 1 0 0 1 -1 1z" fill="#6fc6f0"/><path d="m5 5h54v10h-54z" fill="#c2cde7"/><g fill="#8d6c9f"><path d="m57 4h-50a3 3 0 0 0 -3 3v44a3 3 0 0 0 3 3h17.09a1 1 0 0 1 .75.34l5.64 6.45a2 2 0 0 0 1.5.68 2 2 0 0 0 1.51-.7l5.51-6.42a1 1 0 0 1 .76-.35h17.24a3 3 0 0 0 3-3v-44a3 3 0 0 0 -3-3zm-51 3a1 1 0 0 1 1-1h50a1 1 0 0 1 1 1v7h-52zm51 45h-17.21a3 3 0 0 0 -2.27 1l-5.52 6.47-5.65-6.47a3 3 0 0 0 -2.26-1h-17.09a1 1 0 0 1 -1-1v-35h52v35a1 1 0 0 1 -1 1z"/><path d="m19 8a1 1 0 0 0 -1 1v2a1 1 0 0 0 2 0v-2a1 1 0 0 0 -1-1z"/><path d="m14 8a1 1 0 0 0 -1 1v2a1 1 0 0 0 2 0v-2a1 1 0 0 0 -1-1z"/><path d="m9 8a1 1 0 0 0 -1 1v2a1 1 0 0 0 2 0v-2a1 1 0 0 0 -1-1z"/><path d="m24 8a1 1 0 0 0 -1 1v2a1 1 0 0 0 2 0v-2a1 1 0 0 0 -1-1z"/><path d="m29 8a1 1 0 0 0 -1 1v2a1 1 0 0 0 2 0v-2a1 1 0 0 0 -1-1z"/><path d="m34 8a1 1 0 0 0 -1 1v2a1 1 0 0 0 2 0v-2a1 1 0 0 0 -1-1z"/><path d="m39 8a1 1 0 0 0 -1 1v2a1 1 0 0 0 2 0v-2a1 1 0 0 0 -1-1z"/><path d="m44 8a1 1 0 0 0 -1 1v2a1 1 0 0 0 2 0v-2a1 1 0 0 0 -1-1z"/><path d="m49 8a1 1 0 0 0 -1 1v2a1 1 0 0 0 2 0v-2a1 1 0 0 0 -1-1z"/><path d="m54 8a1 1 0 0 0 -1 1v2a1 1 0 0 0 2 0v-2a1 1 0 0 0 -1-1z"/></g><g fill="#f5f5f5"><path d="m23 26h4a1 1 0 0 0 0-2h-4a1 1 0 0 0 0 2z"/><path d="m48 24h-17a1 1 0 0 0 0 2h17a1 1 0 0 0 0-2z"/><path d="m48 32h-25a1 1 0 0 0 0 2h25a1 1 0 0 0 0-2z"/><path d="m38 40h-15a1 1 0 0 0 0 2h15a1 1 0 0 0 0-2z"/><circle cx="16" cy="25" r="2"/><circle cx="16" cy="33" r="2"/><circle cx="16" cy="41" r="2"/></g></svg>