<svg height="128" viewBox="0 0 64 64" width="128" xmlns="http://www.w3.org/2000/svg"><rect fill="#faefde" height="50" rx="2" width="54" x="5" y="7"/><path d="m6.89 6.77h50.11a2 2 0 0 1 2 2c0 1.1 1.1 2.23 0 2.23h-52a2.3 2.3 0 0 1 -2.11-2.23 2 2 0 0 1 2-2z" fill="#fff7f0"/><path d="m57 57h-50a2 2 0 0 1 -2-2v1a4 4 0 0 1 4-4h46a4 4 0 0 1 4 4v-1a2 2 0 0 1 -2 2z" fill="#efd8be"/><circle cx="26" cy="41" fill="#ed7899" r="2"/><rect fill="#72caaf" height="8" rx="1" width="24" x="25" y="25"/><rect fill="#85cbf8" height="4" rx="1" width="24" x="25" y="15"/><g fill="#8d6c9f"><path d="m57 6h-50a3 3 0 0 0 -3 3v46a3 3 0 0 0 3 3h50a3 3 0 0 0 3-3v-46a3 3 0 0 0 -3-3zm1 49a1 1 0 0 1 -1 1h-50a1 1 0 0 1 -1-1v-46a1 1 0 0 1 1-1h50a1 1 0 0 1 1 1z"/><path d="m14 50a1 1 0 0 0 -1 1v2a1 1 0 0 0 2 0v-2a1 1 0 0 0 -1-1z"/><path d="m9 50a1 1 0 0 0 -1 1v2a1 1 0 0 0 2 0v-2a1 1 0 0 0 -1-1z"/><path d="m29 50a1 1 0 0 0 -1 1v2a1 1 0 0 0 2 0v-2a1 1 0 0 0 -1-1z"/><path d="m34 50a1 1 0 0 0 -1 1v2a1 1 0 0 0 2 0v-2a1 1 0 0 0 -1-1z"/><path d="m39 50a1 1 0 0 0 -1 1v2a1 1 0 0 0 2 0v-2a1 1 0 0 0 -1-1z"/><path d="m44 50a1 1 0 0 0 -1 1v2a1 1 0 0 0 2 0v-2a1 1 0 0 0 -1-1z"/><path d="m49 50a1 1 0 0 0 -1 1v2a1 1 0 0 0 2 0v-2a1 1 0 0 0 -1-1z"/><path d="m54 50a1 1 0 0 0 -1 1v2a1 1 0 0 0 2 0v-2a1 1 0 0 0 -1-1z"/><path d="m19 50a1 1 0 0 0 -1 1v2a1 1 0 0 0 2 0v-2a1 1 0 0 0 -1-1z"/><path d="m24 50a1 1 0 0 0 -1 1v2a1 1 0 0 0 2 0v-2a1 1 0 0 0 -1-1z"/><path d="m49 38h-17a1 1 0 0 0 0 2h17a1 1 0 0 0 0-2z"/><path d="m45 42h-13a1 1 0 0 0 0 2h13a1 1 0 0 0 0-2z"/><path d="m19 26h-6a1 1 0 0 0 0 2h6a1 1 0 0 0 0-2z"/><path d="m29 41a3 3 0 1 0 -3 3 3 3 0 0 0 3-3zm-3 1a1 1 0 1 1 1-1 1 1 0 0 1 -1 1z"/><path d="m48 24h-22a2 2 0 0 0 -2 2v6a2 2 0 0 0 2 2h22a2 2 0 0 0 2-2v-6a2 2 0 0 0 -2-2zm-22 8v-6h22v6z"/><path d="m19 16h-6a1 1 0 0 0 0 2h6a1 1 0 0 0 0-2z"/><path d="m48 14h-22a2 2 0 0 0 -2 2v2a2 2 0 0 0 2 2h22a2 2 0 0 0 2-2v-2a2 2 0 0 0 -2-2zm-22 4v-2h22v2z"/></g></svg>