<svg height="128" viewBox="0 0 64 64" width="128" xmlns="http://www.w3.org/2000/svg"><circle cx="31" cy="31" fill="#72caaf" r="28"/><circle cx="31" cy="31" fill="#88d7b6" r="21"/><g fill="#8d6c9f"><path d="m31 2a28.94 28.94 0 0 0 -9.48 1.59 1 1 0 0 0 .65 1.89 27 27 0 1 1 10.65 52.46 1 1 0 0 0 .07 2h.07a29 29 0 0 0 -1.96-57.94z"/><path d="m5 32a1 1 0 0 0 0-2h-2a1 1 0 0 0 0 2z"/><path d="m6.55 36.2a1 1 0 0 0 -1.19-.77l-2 .42a1 1 0 0 0 .21 2h.21l2-.42a1 1 0 0 0 .77-1.23z"/><path d="m8.16 41.17a1 1 0 0 0 -1.32-.51l-1.84.82a1 1 0 1 0 .81 1.83l1.83-.81a1 1 0 0 0 .52-1.33z"/><path d="m9.38 45.47-1.62 1.18a1 1 0 0 0 1.18 1.62l1.62-1.18a1 1 0 0 0 -1.18-1.62z"/><path d="m12.86 49.65-1.34 1.49a1 1 0 1 0 1.48 1.34l1.35-1.48a1 1 0 1 0 -1.49-1.34z"/><path d="m18.5 52.65a1 1 0 0 0 -1.37.37l-1 1.73a1 1 0 0 0 1.73 1l1-1.73a1 1 0 0 0 -.36-1.37z"/><path d="m23.27 54.78a1 1 0 0 0 -1.26.64l-.62 1.9a1 1 0 1 0 1.9.62l.62-1.9a1 1 0 0 0 -.64-1.26z"/><path d="m28.39 55.86a1 1 0 0 0 -1.1.89l-.21 2a1 1 0 0 0 .89 1.1h.11a1 1 0 0 0 1-.9l.21-2a1 1 0 0 0 -.9-1.09z"/><path d="m3.4 26.16 2 .42h.21a1 1 0 0 0 .21-2l-2-.42a1 1 0 0 0 -.42 2z"/><path d="m5 20.52 1.83.81a1 1 0 0 0 .81-1.83l-1.81-.8a1 1 0 1 0 -.83 1.82z"/><path d="m8.94 13.73a1 1 0 1 0 -1.18 1.62l1.62 1.18a1 1 0 0 0 1.18-1.62z"/><path d="m13 9.52a1 1 0 0 0 -1.49 1.34l1.34 1.49a1 1 0 1 0 1.5-1.35z"/><path d="m17.87 6.25a1 1 0 0 0 -1.73 1l1 1.73a1 1 0 0 0 1.73-1z"/></g><path d="m28 39a1 1 0 0 0 .71-.29l15-15a1 1 0 0 0 -1.41-1.41l-14.3 14.29-7.29-7.29a1 1 0 0 0 -1.41 1.41l8 8a1 1 0 0 0 .7.29z" fill="#faefde"/><path d="m40.45 12.24a1 1 0 0 0 .9-1.79 22.88 22.88 0 0 0 -2.3-1 1 1 0 0 0 -.7 1.87 21.07 21.07 0 0 1 2.1.92z" fill="#8d6c9f"/><path d="m22.75 11.6a1 1 0 0 0 .37-.07 21 21 0 0 1 11.22-1.26 1 1 0 1 0 .32-2 23 23 0 0 0 -12.29 1.4 1 1 0 0 0 .38 1.93z" fill="#8d6c9f"/></svg>