<svg height="128" viewBox="0 0 64 64" width="128" xmlns="http://www.w3.org/2000/svg"><path d="m20.03 15.02h4v22h-4z" fill="#f9e3ae" transform="matrix(.70710678 -.70710678 .70710678 .70710678 -11.95 23.2)"/><path d="m6.26 8.57-1.69 1.69a1 1 0 0 0 -.13 1.25l4.51 7a1 1 0 0 0 .62.43l2.73.63a1 1 0 0 0 .93-.27l2.05-2.05a1 1 0 0 0 .27-.91l-.55-2.68a1 1 0 0 0 -.43-.63l-7.06-4.59a1 1 0 0 0 -1.25.13z" fill="#f6d397"/><path d="m36 35.8-1.29-1.29-4.24 4.24 1.33 1.25a2 2 0 0 1 .52 2 4 4 0 0 0 1 3.85l13.46 13.41a4 4 0 0 0 5.66 0l2.83-2.83a4 4 0 0 0 0-5.66l-13.44-13.43a4 4 0 0 0 -3.85-1 2 2 0 0 1 -1.98-.54z" fill="#ed7899"/><path d="m52.22 59.2-21.08-21.08-.63.63 1.29 1.25a2 2 0 0 1 .52 2 4 4 0 0 0 1 3.85l13.46 13.41a4 4 0 0 0 5.66 0z" fill="#e0678f"/><path d="m59.6 14.88-6.24 6.24a2 2 0 0 1 -1.93.52l-1.09-.29a8 8 0 0 1 -5.66-5.66l-.29-1.09a2 2 0 0 1 .52-1.93l6.25-6.25c-4.48-1.42-11 1-14.55 4.6s-3.19 7.21-1.79 11.69l-17.32 17.29a10 10 0 1 0 8.5 8.5l17.3-17.32c4.47 1.41 8.14 1.76 11.69-1.79s6.01-10.04 4.61-14.51zm-40.23 38.3-4.46 1.2-3.27-3.27 1.2-4.46 4.46-1.2 3.27 3.27z" fill="#c2cde7"/><path d="m59.6 14.88-6.24 6.24a2 2 0 0 1 -1.93.52l-1.09-.29a8 8 0 0 1 -5.66-5.66l-.29-1.09a2 2 0 0 1 .52-1.93l6.25-6.25c-4.48-1.42-11 1-14.55 4.6a9.47 9.47 0 0 0 -2.29 3.44l17.22 17.22a9.47 9.47 0 0 0 3.46-2.28c3.53-3.55 6-10.05 4.6-14.52z" fill="#d6dff2"/><g fill="#8d6c9f"><path d="m39 44.41a1 1 0 0 0 -1.41 1.41l9.9 9.9a1 1 0 0 0 1.41-1.41z"/><path d="m41.83 41.58a1 1 0 0 0 -1.42 1.42l9.9 9.9a1 1 0 0 0 1.41-1.41z"/><path d="m18 44.75a1 1 0 0 0 -1-.26l-4.46 1.2a1 1 0 0 0 -.71.71l-1.2 4.46a1 1 0 0 0 .26 1l3.27 3.27a1 1 0 0 0 1 .26l4.46-1.2a1 1 0 0 0 .71-.71l1.2-4.48a1 1 0 0 0 -.26-1zm.55 7.62-3.35.9-2.45-2.45.9-3.35 3.35-.9 2.45 2.43z"/><path d="m45.79 27.27a1 1 0 0 0 1.41-1.41l-7.07-7.07a1 1 0 0 0 -1.41 1.41z"/><path d="m37.31 27.27a1 1 0 0 0 -1.41 1.41l1.41 1.41a1 1 0 0 0 1.41-1.41z"/><path d="m33.77 30.81a1 1 0 1 0 -1.41 1.41l1.41 1.41a1 1 0 0 0 1.41-1.41z"/><path d="m30.24 34.35a1 1 0 0 0 -1.41 1.41l1.41 1.41a1 1 0 0 0 1.41-1.41z"/><path d="m26.7 37.88a1 1 0 0 0 -1.41 1.41l1.41 1.41a1 1 0 0 0 1.41-1.41z"/><path d="m23.17 41.42a1 1 0 0 0 -1.41 1.41l1.41 1.41a1 1 0 0 0 1.41-1.41z"/><path d="m42.53 36.63a4.89 4.89 0 0 0 -2.06-1.21l3.11-3.11c4.61 1.36 8.46 1.44 12.11-2.21s6.46-10.44 4.86-15.52a1 1 0 0 0 -1.66-.41l-6.24 6.24a1 1 0 0 1 -1 .26l-1.09-.29a7 7 0 0 1 -4.95-4.95l-.29-1.1a1 1 0 0 1 .26-1l6.25-6.25a1 1 0 0 0 -.4-1.66c-5.06-1.58-11.88 1.23-15.54 4.88s-3.58 7.5-2.21 12.11l-5.51 5.51-11.62-11.62a2 2 0 0 0 0-.21l-.55-2.64a2 2 0 0 0 -.87-1.27l-7.08-4.58a2 2 0 0 0 -2.5.26l-1.69 1.69a2 2 0 0 0 -.26 2.45l4.51 7a2 2 0 0 0 1.23.86l2.73.63h.23l11.63 11.68-6.8 6.83a10.91 10.91 0 0 0 -9.84 4.3 11 11 0 0 0 8.18 17.58h.62a11 11 0 0 0 7.78-3.22 10.9 10.9 0 0 0 3.13-8.8l4.39-4.39a4.9 4.9 0 0 0 1.21 2.06l13.47 13.47a5 5 0 0 0 7.07 0l2.86-2.86a5 5 0 0 0 0-7.07zm-37.25-25.63 1.72-1.72 7 4.58.55 2.64-2.05 2.05-2.73-.63zm9 8.7.7-.7.72-.72 11.06 11.06-1.41 1.41zm11 28.13a1 1 0 0 0 -.28.85 9 9 0 0 1 -16 6.8 9.05 9.05 0 0 1 -.14-11 8.92 8.92 0 0 1 7.17-3.6 9.3 9.3 0 0 1 1.3.09 1 1 0 0 0 .85-.28l17.34-17.29a1 1 0 0 0 .25-1c-1.38-4.4-1.58-7.56 1.54-10.68 2.75-2.72 7.8-5.01 11.81-4.72l-4.93 5a3 3 0 0 0 -.78 2.9l.29 1.09a9 9 0 0 0 6.36 6.36l1.09.29a3 3 0 0 0 2.9-.78l4.9-4.9c.31 4-1.95 9-4.69 11.76-3.1 3.08-6.26 2.89-10.66 1.51a1 1 0 0 0 -1 .25zm29.28 7.93-2.83 2.83a3 3 0 0 1 -4.24 0l-13.49-13.47a3 3 0 0 1 -.82-2.44l5.45-5.45a3 3 0 0 1 2.44.82l13.48 13.43a3 3 0 0 1 0 4.24z"/></g></svg>