<svg enable-background="new 0 0 64 64" height="128" viewBox="0 0 64 64" width="128" xmlns="http://www.w3.org/2000/svg"><circle cx="13.5" cy="24.5" fill="#f283a5" r="6.5"/><circle cx="50.5" cy="24.5" fill="#f283a5" r="6.5"/><circle cx="43.5" cy="54.5" fill="#f283a5" r="6.5"/><circle cx="20.5" cy="54.5" fill="#f283a5" r="6.5"/><path d="m50.653 21.739-6.653-.739-4.053-3.378c-1.258-1.048-2.844-1.622-4.481-1.622h-7.222c-1.459 0-2.881.456-4.069 1.304l-5.175 3.696-5.689.711c-1.32.165-2.311 1.288-2.311 2.618v.032c0 1.458 1.181 2.639 2.638 2.639h7.686c.599 0 1.18-.204 1.648-.578l3.028-2.422v11.375l-7.792 16.99c-.658 1.434.019 3.126 1.483 3.712 1.312.525 2.808-.026 3.466-1.277l8.843-16.8 9.585 17.427c.747 1.358 2.524 1.741 3.764.811.963-.722 1.29-2.019.784-3.111l-8.133-17.564v-11.563l2.742 2.361c.478.412 1.089.639 1.721.639h7.898c1.458 0 2.639-1.181 2.639-2.638 0-1.345-1.011-2.474-2.347-2.623z" fill="#85cbf8"/><circle cx="32" cy="8" fill="#faefde" r="5"/><g fill="#8d6c9f"><path d="m32 14c3.309 0 6-2.691 6-6s-2.691-6-6-6-6 2.691-6 6 2.691 6 6 6zm0-10.241c2.338 0 4.241 1.902 4.241 4.241s-1.903 4.241-4.241 4.241-4.241-1.903-4.241-4.241 1.903-4.241 4.241-4.241z"/><path d="m39.905 26.118c1.176.794 2.479 1.342 3.845 1.635 1.214 2.509 3.78 4.247 6.75 4.247 4.136 0 7.5-3.364 7.5-7.5s-3.364-7.5-7.5-7.5c-2.377 0-4.492 1.117-5.866 2.848l-3.621-2.624c-1.042-.755-2.198-1.317-3.434-1.67-3.65-1.044-7.509-1.043-11.194.01-1.211.345-2.346.892-3.372 1.625l-3.676 2.626c-1.373-1.712-3.475-2.815-5.837-2.815-4.136 0-7.5 3.364-7.5 7.5s3.364 7.5 7.5 7.5c2.967 0 5.532-1.734 6.747-4.241 1.358-.286 2.655-.826 3.827-1.607l.926-.617v9.248l-5.594 12.306c-3.617.532-6.406 3.648-6.406 7.411 0 4.136 3.364 7.5 7.5 7.5s7.5-3.364 7.5-7.5c0-1.642-.538-3.155-1.437-4.39l5.437-10.874 5.437 10.874c-.899 1.235-1.437 2.749-1.437 4.39 0 4.136 3.364 7.5 7.5 7.5s7.5-3.364 7.5-7.5c0-3.763-2.789-6.879-6.407-7.411l-5.593-12.306v-9.277zm10.595-7.118c3.033 0 5.5 2.467 5.5 5.5s-2.467 5.5-5.5 5.5c-1.7 0-3.21-.784-4.219-2h4.219c1.93 0 3.5-1.57 3.5-3.5s-1.57-3.5-3.5-3.5h-2.98c-.377 0-.744-.06-1.099-.161 1.007-1.123 2.456-1.839 4.079-1.839zm-37 11c-3.033 0-5.5-2.467-5.5-5.5s2.467-5.5 5.5-5.5c1.615 0 3.059.71 4.065 1.823-.376.115-.767.177-1.168.177h-2.897c-1.93 0-3.5 1.57-3.5 3.5s1.57 3.5 3.5 3.5h4.219c-1.009 1.216-2.519 2-4.219 2zm12.5 24.5c0 3.033-2.467 5.5-5.5 5.5s-5.5-2.467-5.5-5.5c0-2.254 1.374-4.174 3.32-5.021l-1.457 3.205c-.532 1.169-.434 2.512.261 3.591.696 1.08 1.878 1.725 3.17 1.725 1.434 0 2.722-.796 3.363-2.079l1.837-3.674c.315.69.506 1.447.506 2.253zm23 0c0 3.033-2.467 5.5-5.5 5.5s-5.5-2.467-5.5-5.5c0-.806.191-1.563.506-2.253l1.837 3.674c.64 1.283 1.929 2.079 3.371 2.079 1.284 0 2.466-.645 3.162-1.725.695-1.08.793-2.422.261-3.591l-1.457-3.206c1.946.847 3.32 2.768 3.32 5.022zm-11.91-19.086 8.227 18.099c.252.555.208 1.167-.123 1.681-.331.512-.87.806-1.488.806-.671 0-1.274-.373-1.574-.973l-9.237-18.474c-.17-.339-.516-.553-.895-.553s-.725.214-.895.553l-9.237 18.474c-.3.6-.903.973-1.582.973-.61 0-1.149-.294-1.48-.807-.33-.513-.375-1.125-.123-1.681l8.227-18.098c.059-.13.09-.271.09-.414v-11.333c0-.369-.203-.708-.528-.882-.325-.175-.72-.156-1.026.05l-2.481 1.654c-1.484.988-3.21 1.511-4.993 1.511h-4.472c-.827 0-1.5-.673-1.5-1.5s.673-1.5 1.5-1.5h2.897c1.258 0 2.464-.386 3.487-1.117l4.292-3.065c.84-.6 1.768-1.047 2.794-1.34 3.29-.94 6.769-.94 10.061 0 1.011.289 1.956.748 2.809 1.366l4.159 3.014c1.031.747 2.248 1.142 3.521 1.142h2.98c.827 0 1.5.673 1.5 1.5s-.673 1.5-1.5 1.5h-4.441c-1.801 0-3.542-.533-5.035-1.54l-2.464-1.664c-.307-.208-.704-.229-1.029-.054-.327.174-.531.513-.531.883v11.375c0 .143.031.284.09.414z"/><path d="m33 31h-2c-.552 0-1 .448-1 1s.448 1 1 1h2c.552 0 1-.448 1-1s-.448-1-1-1z"/><path d="m33 26h-2c-.552 0-1 .448-1 1s.448 1 1 1h2c.552 0 1-.448 1-1s-.448-1-1-1z"/><path d="m33 21h-2c-.552 0-1 .448-1 1s.448 1 1 1h2c.552 0 1-.448 1-1s-.448-1-1-1z"/></g></svg>